<?xml version="1.0" encoding="UTF-8"?>
<svg xmlns="http://www.w3.org/2000/svg" version="1.1" xmlns:xlink="http://www.w3.org/1999/xlink" viewBox="0 0 500 500">
  <defs>
    <style>
      .cls-1 {
        fill: #fff;
      }

      .cls-2 {
        fill: none;
      }

      .cls-3 {
        clip-path: url(#clippath-1);
      }

      .cls-4 {
        fill: #ffe15c;
      }

      .cls-5 {
        clip-path: url(#clippath-2);
      }

      .cls-6 {
        clip-path: url(#clippath);
      }
    </style>
    <clipPath id="clippath">
      <rect class="cls-2" x="109.3" y="296" width="110.7" height="19.5"/>
    </clipPath>
    <clipPath id="clippath-1">
      <rect class="cls-2" x="200" y="296" width="109.6" height="19.5"/>
    </clipPath>
    <clipPath id="clippath-2">
      <rect class="cls-2" x="50" y="257.3" width="22" height="17.3"/>
    </clipPath>
  </defs>
  <!-- Generator: Adobe Illustrator 28.7.8, SVG Export Plug-In . SVG Version: 1.2.0 Build 200)  -->
  <g>
    <g id="Layer_1">
      <g id="_x33_7f67b29c6">
        <rect class="cls-2" x="97.4" y="159.6" width="246.1" height="142.1"/>
        <path class="cls-1" d="M107.2,245.9c6.3-9.1,17.7-9.9,17.7-9.9,2.5-7.1,1.8-12.2,1-14.9-2.1,1.3-4,2.9-5.7,4.6-4.3,4.4-9.9,11.4-13,20.2"/>
        <path class="cls-1" d="M71.9,230.5c2.4-22.4,16.3-37.4,23.8-44-5.7,1.8-14.7,3.9-23.2,2.8,0,0-14,35.7-1.1,54.2-.4-7.3.4-12.3.5-13"/>
        <path class="cls-1" d="M129.9,181.8c0-1.8-1.4-3.2-3.2-3.2s-3.2,1.4-3.2,3.2,1.4,3.2,3.2,3.2,3.2-1.4,3.2-3.2"/>
        <path class="cls-1" d="M88.5,277c.2.5-.5.8-.8.3-28.2-50.6,8.8-84.6,13.5-88.6.2-.2.5,0,.5.2-.2,8.4,6.4,15.3,7.7,16.6.1.1.1.3,0,.4-33.1,23.5-25.3,58.2-20.9,71ZM126.7,177.9c2.9,0,5.3,2.4,5.3,5.2s-2.4,5.3-5.3,5.3-5.2-2.4-5.2-5.3,2.4-5.2,5.2-5.2ZM160.7,299.9s-11.1,1.7-23.4-.3c-12.2-2-22.8-9.6-28.7-20.4-13-23.9-.5-43.5,8.7-53.4,3.4-3.7,7.6-6.7,12.1-8.9,23.4-11.3,24.4-37.6,24.1-45.3,0-1.2-1-2.2-2.3-2.2-4.9,0-17.6.6-31,5.3-2.8,1-5.5,2.4-7.7,4.5-11.9,10.9.6,24.7.6,24.7-11.2-11.7-8.2-19.7-3.7-24.5-2.7,1.5-5.4,3.1-7.9,5,0,0-24.4,16.6-27.6,46.3,0,0-8.2,48.5,37,69.7,1.9,1,4,1.8,6.2,2.6,4.2,1.4,8.9,2.4,14.1,2.6,0,0,0,0,0,0h0c8.4.3,18.2-1.3,29.4-5.7"/>
        <g class="cls-6">
          <path class="cls-4" d="M109.7,305.7s.4.1,1.2.3c.8.2,2,.5,3.5.9.8.2,1.6.3,2.5.5.9.2,1.8.4,2.9.6,1.1.2,2.1.4,3.3.5,1.2.1,2.4.3,3.7.4,1.3,0,2.6.2,4,.2.7,0,1.4,0,2.1,0,.7,0,1.4,0,2.1,0,.7,0,1.5,0,2.2,0,.7,0,1.5-.1,2.3-.2.8,0,1.5-.1,2.3-.3.8-.1,1.5-.2,2.3-.3,3.1-.5,6.3-1.2,9.6-2.1,3.2-.9,6.5-1.8,9.9-2.9,3.3-1,6.7-2.1,10.1-3.1.9-.2,1.7-.5,2.5-.7.9-.2,1.7-.4,2.6-.6.8-.2,1.7-.4,2.6-.6.8-.2,1.7-.4,2.5-.5,3.4-.6,6.8-.9,10-.9,3.2,0,6.2.4,9,.9.7.2,1.3.3,2,.5s1.3.3,1.9.6c.6.2,1.2.4,1.7.6.3.1.6.2.8.3.3.1.5.2.8.4,1,.5,2,.9,2.8,1.4.8.5,1.6.9,2.3,1.3.3.2.7.4.9.6.3.2.6.4.8.6.5.4.9.7,1.3.9.7.5,1,.8,1,.8,0,0-.4-.1-1.2-.4-.4-.1-.9-.3-1.4-.5-.6-.2-1.2-.4-1.9-.6-.7-.2-1.5-.4-2.4-.7-.9-.2-1.8-.4-2.9-.6-.3,0-.5-.1-.8-.2-.3,0-.5,0-.8-.1-.5,0-1.1-.2-1.7-.3-.6,0-1.2-.1-1.8-.2-.6,0-1.2,0-1.8-.1-2.5,0-5.2,0-8.1.3-2.8.4-5.8.9-8.9,1.8-.8.2-1.5.4-2.3.6-.8.2-1.6.4-2.4.7-1.6.5-3.2,1-4.8,1.5-3.2,1.1-6.6,2.2-10,3.3-3.4,1.1-6.9,2.1-10.4,2.8-.9.2-1.8.4-2.6.6-.9.1-1.8.3-2.6.4-.9.2-1.7.3-2.6.4-.9,0-1.7.2-2.6.3-1.7,0-3.4.2-5.1.2-1.7,0-3.3,0-4.9-.2-.8,0-1.6-.2-2.3-.3-.8-.1-1.5-.2-2.2-.3-1.5-.3-2.9-.6-4.2-.9-1.3-.4-2.6-.8-3.8-1.1-1.2-.4-2.3-.9-3.3-1.3-1-.4-2-.8-2.8-1.3-.8-.4-1.6-.8-2.3-1.2-1.4-.8-2.4-1.4-3.1-1.9-.7-.4-1.1-.7-1.1-.7"/>
        </g>
        <g class="cls-3">
          <path class="cls-4" d="M200.3,305.7s.4.1,1.3.3c.8.2,2,.5,3.5.9.8.2,1.6.3,2.5.5.9.2,1.8.4,2.9.6,1.1.2,2.2.4,3.3.5,1.2.1,2.4.3,3.7.4,1.3,0,2.6.2,4,.2.7,0,1.4,0,2.1,0,.7,0,1.4,0,2.2,0,.7,0,1.5,0,2.2,0,.7,0,1.5-.1,2.3-.2.8,0,1.5-.1,2.3-.3.8-.1,1.5-.2,2.3-.3,3.1-.5,6.3-1.2,9.6-2.1,3.2-.9,6.5-1.8,9.9-2.9,3.3-1,6.7-2.1,10.1-3.1.9-.2,1.7-.5,2.5-.7.9-.2,1.7-.4,2.6-.6.8-.2,1.7-.4,2.5-.6.8-.2,1.7-.4,2.6-.5,3.4-.6,6.8-.9,10-.9,3.2,0,6.2.4,9,.9.7.2,1.3.3,2,.5.6.2,1.3.3,1.9.6.6.2,1.2.4,1.7.6.3.1.6.2.8.3.3.1.5.2.8.4,1,.5,2,.9,2.8,1.4.8.5,1.6.9,2.3,1.3.3.2.7.4,1,.6.3.2.5.4.8.6.5.4.9.7,1.2.9.7.5,1,.8,1,.8,0,0-.4-.1-1.2-.4-.4-.1-.9-.3-1.4-.5-.6-.2-1.2-.4-1.9-.6-.7-.2-1.5-.4-2.4-.7-.9-.2-1.8-.4-2.9-.6-.3,0-.5-.1-.8-.2-.3,0-.5,0-.8-.1-.5,0-1.1-.2-1.7-.3-.6,0-1.2-.1-1.8-.2-.6,0-1.2,0-1.8-.1-2.5,0-5.2,0-8.1.3-2.8.4-5.8.9-8.9,1.8-.8.2-1.5.4-2.3.6-.8.2-1.6.4-2.4.7-1.6.5-3.2,1-4.8,1.5-3.2,1.1-6.6,2.2-10,3.3-3.4,1.1-6.9,2.1-10.4,2.8-.9.2-1.8.4-2.6.6-.9.1-1.8.3-2.6.4-.9.2-1.7.3-2.6.4-.9,0-1.7.2-2.6.3-1.7,0-3.4.2-5.1.2-1.7,0-3.3,0-4.9-.2-.8,0-1.6-.2-2.3-.3s-1.5-.2-2.2-.3c-1.5-.3-2.9-.6-4.2-.9-1.3-.4-2.6-.8-3.8-1.1-1.2-.4-2.3-.9-3.3-1.3-1-.4-2-.8-2.8-1.3-.9-.4-1.6-.8-2.3-1.2-1.4-.8-2.4-1.4-3.1-1.9-.7-.4-1.1-.7-1.1-.7"/>
        </g>
        <path class="cls-4" d="M139.5,273.6c.2-.5,1.1-5.3,1.6-7.1,1.2-4.2,2.4-9.1,6-11,1.3-.7,3-.8,4.4.1,1.9,1.3,2.9,4,1.6,5.9-1.2,1.9-3.5,2.1-5.5,2.6-4.1.9-5.8,4.3-8.2,9.5"/>
        <path class="cls-4" d="M152.2,291.3c.6-.7,4.7-7,6.5-9.2,4.2-5.4,8.8-11.8,16-12.8,2.6-.4,5.5.1,7.4,2.1,2.5,2.6,2.7,6.8-.4,8.9-3.1,2.1-7,1.4-10.5,1.2-7.4-.5-11.9,3.5-18.8,9.8"/>
        <g class="cls-5">
          <path class="cls-4" d="M71.7,273.6c-.4-.5-3-4.9-4.1-6.5-2.7-3.8-5.6-8.3-10.4-9.3-1.7-.3-3.8-.1-5.1,1.1-1.8,1.7-2.1,4.5,0,6.1,2,1.6,4.8,1.2,7.1,1.2,5,0,8,2.8,12.5,7.4"/>
        </g>
        <path class="cls-4" d="M92.2,293.6c-.8-.3-7.7-3.4-10.4-4.4-6.4-2.4-13.7-5.2-20.3-2.2-2.4,1.1-4.6,3-5.1,5.7-.7,3.5,1.3,7.2,5.1,7.3,3.7.2,6.7-2.6,9.6-4.6,6-4.3,12-3.4,21.2-1.8"/>
        <path class="cls-1" d="M215.6,239.2c6.5,0,11.5,1.9,15,5.8,3.5,3.9,5.3,9,5.3,15.3s0,2.4-.2,3.5c0,1.2-.2,2.3-.4,3.4,2.8-.4,5.2-1.4,7.2-2.8,2-1.4,3.5-2.7,4.6-4,1.1-1.3,1.6-1.9,1.6-1.9,1.5,0,2.2.9,2,2.8-.2,1.3-1.1,2.7-2.6,4.3-1.5,1.6-3.4,3-5.8,4.3-2.4,1.3-5.1,2.1-8,2.4-1.8,6.6-5.2,11.9-10.2,16-5,4.1-11.2,6.1-18.7,6.1s-10.7-1.8-14.5-5.4c-3.9-3.6-5.8-8.8-5.8-15.7s1.2-12.6,3.7-17.7c2.5-5.1,6-9.1,10.6-12,4.6-2.9,10-4.4,16.3-4.4ZM216,260.6c0-1.9.5-3.6,1.4-4.9,1-1.4,2.4-2.2,4.2-2.6-.6-5.7-3-8.5-7.2-8.5s-5.4,1.6-8.1,4.9c-2.7,3.2-4.8,9-6.3,17.2-.3,1.4-.5,3.3-.7,5.7-.2,2.4-.3,4.3-.3,5.7,0,3.5.6,6.1,1.9,8s3.1,2.8,5.4,2.8,5.7-1.6,8.1-4.8c2.4-3.2,4.3-8.1,5.7-14.8-2.8-2.1-4.2-5-4.2-8.7Z"/>
        <path class="cls-1" d="M289.7,294.4c-3.6,0-6.6-1.1-9-3.3-2.4-2.2-3.7-5.3-3.9-9.3-4.8,8.4-10.5,12.6-17,12.6s-8.3-1.5-11.5-4.6c-3.2-3.1-4.8-7.9-4.8-14.4s.8-11.5,2.4-16.1c1.6-4.5,3.7-8.3,6.4-11.3,2.7-3,5.6-5.2,8.8-6.7,3.2-1.5,6.4-2.2,9.7-2.2s4.8.4,6.7,1.3c1.9.9,3.5,2.1,4.8,3.5l5.3-30.8c.6-3.5.7-5.9.5-7.3-.3-1.4-.4-2.2-.4-2.2,0,0,.4-.2,1.3-.5.9-.3,2.4-.5,4.4-.5,4.3,0,6.9.8,7.8,2.5.9,1.7,1,4.5.4,8.4l-10.6,61.4c-.5,3.3-.3,5.8.5,7.3.8,1.6,2.3,2.4,4.3,2.4s4-.9,6.2-2.6c2.2-1.7,4-4.1,5.4-7,.7,0,1.3.2,1.7.7.4.4.5,1.2.4,2.2-.3,1.5-1,3.1-2,5-1.1,1.8-2.5,3.6-4.3,5.4-1.8,1.7-3.8,3.2-6.1,4.3-2.3,1.1-4.7,1.7-7.4,1.7ZM264.2,284.8c2,0,3.8-.9,5.5-2.7,1.7-1.8,3.2-4.1,4.5-6.9,1.3-2.8,2.5-5.8,3.5-9,1-3.2,1.8-6.2,2.3-8.9l1-5.2c-.5-1.1-1.3-2.3-2.4-3.5-1.1-1.2-2.7-1.8-4.9-1.8s-5,1.2-7.5,3.5c-2.5,2.3-4.5,5.7-6.1,10-1.6,4.3-2.4,9.4-2.4,15.4s.6,5.4,1.7,6.9c1.1,1.5,2.7,2.3,4.8,2.3Z"/>
        <g>
          <path class="cls-1" d="M351.3,294.4c-3.6,0-6.6-1.1-9-3.3-2.4-2.2-3.7-5.3-3.9-9.3-4.8,8.4-10.5,12.6-17,12.6s-8.3-1.5-11.5-4.6c-3.2-3.1-4.8-7.9-4.8-14.4s.8-11.5,2.4-16.1c1.6-4.5,3.7-8.3,6.4-11.3,2.7-3,5.6-5.2,8.8-6.7,3.2-1.5,6.4-2.2,9.7-2.2s4.8.4,6.7,1.3c1.9.9,3.5,2.1,4.8,3.5l5.3-30.8c.6-3.5.7-5.9.5-7.3-.3-1.4-.4-2.2-.4-2.2,0,0,.4-.2,1.3-.5.9-.3,2.4-.5,4.4-.5,4.3,0,6.9.8,7.8,2.5.9,1.7,1,4.5.4,8.4l-10.6,61.4c-.5,3.3-.3,5.8.5,7.3.8,1.6,2.3,2.4,4.3,2.4s4-.9,6.2-2.6c2.2-1.7,4-4.1,5.4-7,.7,0,1.3.2,1.7.7.4.4.5,1.2.4,2.2-.3,1.5-1,3.1-2,5-1.1,1.8-2.5,3.6-4.3,5.4-1.8,1.7-3.8,3.2-6.1,4.3-2.3,1.1-4.7,1.7-7.4,1.7ZM325.8,284.8c2,0,3.8-.9,5.5-2.7,1.7-1.8,3.2-4.1,4.5-6.9,1.3-2.8,2.5-5.8,3.5-9,1-3.2,1.8-6.2,2.3-8.9l1-5.2c-.5-1.1-1.3-2.3-2.4-3.5-1.1-1.2-2.7-1.8-4.9-1.8s-5,1.2-7.5,3.5c-2.5,2.3-4.5,5.7-6.1,10-1.6,4.3-2.4,9.4-2.4,15.4s.6,5.4,1.7,6.9c1.1,1.5,2.7,2.3,4.8,2.3Z"/>
          <g>
            <path class="cls-4" d="M251,193.4c1.9,1.5,3.7,3.2,5.4,5,1.7,1.8,3.3,3.7,4.8,5.6,1.5,2,2.8,4,4,6.2l4.2,7.6,8.1-2.3c2.6-.7,5.3-1.2,8-1.4.5,0,1,0,1.5,0l.2-1c.6-3.4.7-5.8.5-7.2l-.4-2.6h.4c0-.1.4-.3,1.3-.6.9-.4,2.5-.5,4.6-.5,4.5,0,7.2.9,8.2,2.8,1,1.8,1.1,4.6.5,8.7l-.5,2.7c2.5.9,5,2.1,7.3,3.5,2.4,1.4,4.6,3.1,6.6,5.1,2,1.9,3.9,4,5.5,6.4.4.6.8,1.2,1.2,1.8.4.6.7,1.2,1.1,1.8.3.6.7,1.3,1,1.9.3.7.6,1.3.9,2,.1.3.3.6.4,1,2.3-.7,4.5-1.1,6.8-1.1s5,.5,6.9,1.4c1.4.6,2.6,1.4,3.7,2.4-.4-3.1-1-6.2-2-9.3-1.2-3.9-2.8-7.7-4.8-11.2-2-3.6-4.4-6.9-7.2-10-2.8-3.1-5.8-5.8-9.2-8.3-3.4-2.4-7-4.5-10.9-6.1-3.8-1.6-7.9-2.9-12-3.7-4.1-.8-8.3-1.1-12.5-1-1.4,0-2.8.1-4.2.3-.4-.7-.9-1.3-1.4-2-2-2.8-4.2-5.5-6.5-8-2.3-2.5-4.9-4.9-7.6-7-2.7-2.2-5.5-4.2-8.5-5.9-3-1.8-6-3.3-9.2-4.7-3.2-1.3-6.4-2.5-9.8-3.4s-6.7-1.6-10.1-2c-3.4-.4-6.8-.6-10.3-.6h-2.4c0,0-1.3.2-1.3.2h-1.4c-.9.2-1.7.3-2.6.3-.9,0-1.7.2-2.5.3-3.4.5-6.7,1.3-10,2.3-3.3,1-6.5,2.2-9.6,3.6-3.1,1.4-6.1,3.1-8.9,4.9-2.9,1.8-5.6,3.9-8.1,6.1-2.6,2.2-4.9,4.6-7.2,7.1-3.2,3.6-5.9,7.5-8.3,11.7-1.7-.1-3.3-.2-5-.2-2.2,5.3-5.6,10.6-10.6,15h.6c.4,0,.8-.1,1.2-.1.8,0,1.6,0,2.3,0h1.1c.2,0,.4,0,.6,0h1.4c0,0,.4,0,.4,0h.2s0,0,0,0h0c.2,0-.2,0-.2,0h0c.4,0,.8,0,1.2.1,1.6.2,3.1.4,4.7.7,1.5.3,3,.8,4.5,1.2l5.6,1.9,3.7-5.9c2.7-4.4,6-8.4,9.7-11.9,1.8-1.8,3.8-3.4,5.8-4.9,2-1.5,4.2-2.8,6.4-4,2.2-1.2,4.5-2.2,6.8-3.2,2.3-.9,4.7-1.6,7.1-2.2s4.9-1,7.3-1.3c.6,0,1.2-.1,1.8-.2.6,0,1.3,0,1.8-.1h1.7s2,0,2,0c2.5,0,4.9.3,7.4.6,2.4.4,4.8.9,7.2,1.6,2.4.7,4.7,1.5,6.9,2.5,2.2,1,4.4,2.1,6.5,3.4,2.1,1.3,4.1,2.7,6,4.2Z"/>
            <path class="cls-4" d="M310.8,291.2c-1.5,1.1-3,2.2-4.6,3.2l-1.1.6-1.1.6c-.4.2-.7.4-1.1.6l-1.1.5c-.8.4-1.5.7-2.3,1l-.6.2-.6.2-1.2.4c-.4.2-.8.3-1.2.4l-1.2.4c-.8.2-1.6.5-2.5.7-.8.2-1.7.4-2.5.6l-2.6.5c.9.1,1.7.2,2.6.3.9,0,1.8.1,2.7.1.9,0,1.8,0,2.7,0h1.3c.4,0,.9-.1,1.3-.2,1.8-.2,3.6-.4,5.3-.8l1.3-.3c.4,0,.9-.2,1.3-.3l1.3-.4c.4-.1.9-.3,1.3-.4,3.4-1.2,6.8-2.7,9.9-4.6-2.8-.5-5.3-1.6-7.5-3.4Z"/>
          </g>
        </g>
        <path class="cls-1" d="M368.9,270.1l10-56.8c.6-3.5.7-5.9.5-7.3-.3-1.4-.4-2.2-.4-2.2,0,0,.4-.2,1.3-.5.9-.3,2.4-.5,4.4-.5,4.3,0,6.9.8,7.8,2.5.9,1.7,1,4.5.4,8.4l-10.8,61.4c-.5,3.2-.3,5.7.5,7.3.8,1.6,2.3,2.4,4.3,2.4s4.4-.9,6.7-2.6c2.3-1.7,4.1-4.1,5.5-7,.7,0,1.3.2,1.7.7.4.4.5,1.2.4,2.2-.3,1.5-1,3.1-2.1,5-1.1,1.8-2.6,3.6-4.5,5.4-1.8,1.7-3.9,3.2-6.3,4.3-2.3,1.1-4.8,1.7-7.5,1.7-3.8,0-6.9-1.2-9.3-3.6-2.4-2.4-3.6-5.8-3.6-10.2s0-2.6.2-4.4c.1-1.8.4-3.9.8-6.1Z"/>
        <path class="cls-1" d="M421.8,294.4c-4.8,0-9.1-.9-12.9-2.9-3.8-1.9-6.8-4.7-8.9-8.2-2.1-3.6-3.2-7.8-3.2-12.8s.8-9.2,2.5-13.1c1.7-3.9,4-7.2,6.8-9.9,2.8-2.7,6-4.7,9.5-6.2,3.5-1.4,7.1-2.2,10.8-2.2s6.8.6,9.1,1.7c2.3,1.1,4,2.6,5.1,4.3,1.1,1.7,1.6,3.5,1.6,5.5,0,5-2.7,9.2-8.2,12.5-5.5,3.3-13.1,5.9-22.8,7.8.4,4.1,1.9,7.6,4.6,10.4,2.7,2.8,6.4,4.2,11.1,4.2s7.4-.5,10.2-1.6c2.8-1.1,5.2-2.5,7.1-4.1,1.9-1.6,3.3-3.2,4.3-4.8,1.6,0,2.2,1,1.8,2.9-.2,1.2-1.1,2.7-2.5,4.5-1.4,1.8-3.4,3.7-5.8,5.5-2.4,1.8-5.4,3.3-8.8,4.5-3.4,1.2-7.2,1.8-11.4,1.8ZM426.6,244.7c-2.1,0-4.2.8-6.4,2.4s-4.1,3.9-5.8,7.1c-1.6,3.1-2.6,7-3.1,11.6,6.8-1.6,11.7-4,14.6-7.1,3-3.1,4.5-6.5,4.5-10.1s-.4-2.1-1.1-2.8c-.7-.7-1.6-1.1-2.8-1.1Z"/>
        <path class="cls-4" d="M360.4,329.8c0-.7.2-1.2.7-1.7.5-.5,1-.7,1.6-.7s1.1.2,1.5.6c.4.4.5.9.5,1.5s-.2,1.1-.6,1.6c-.4.5-1,.7-1.7.7s-1.1-.2-1.4-.6c-.4-.4-.5-.8-.5-1.4Z"/>
        <path class="cls-4" d="M374.4,331.4c-1.4,0-2.7-.3-3.8-.9-1.1-.6-2-1.4-2.6-2.4-.6-1-1-2.3-1-3.7s.2-2.7.7-3.9c.5-1.2,1.1-2.1,1.9-3,.8-.8,1.8-1.5,2.8-1.9,1-.4,2.1-.7,3.3-.7s2.4.3,3.3,1c.9.7,1.3,1.6,1.3,2.6s-.3,1.8-.8,2.5c-.5.6-1.2,1-2,1s-1-.1-1.2-.4c-.2-.3-.3-.4-.3-.4,0,0,0-.1.3-.3.2-.2.4-.6.6-1,.2-.5.3-1.1.3-1.8s-.1-.8-.4-1.1c-.3-.3-.6-.4-1.1-.4-.7,0-1.3.3-2,.9-.7.6-1.2,1.4-1.7,2.5-.4,1.1-.7,2.3-.7,3.8s.4,2.7,1.3,3.6c.8.9,2,1.4,3.6,1.4s2.1-.2,2.9-.5c.8-.3,1.5-.7,2.1-1.2.6-.5,1-1,1.3-1.4.5,0,.6.3.5.9,0,.3-.3.8-.8,1.3s-1,1.1-1.7,1.6c-.7.5-1.6,1-2.6,1.3-1,.4-2.1.5-3.4.5Z"/>
        <path class="cls-4" d="M382.4,324.2l3-16.9c.2-1,.2-1.8.1-2.2,0-.4-.1-.6-.1-.6,0,0,.1,0,.4-.1.3,0,.7-.1,1.3-.1,1.3,0,2,.3,2.3.8.3.5.3,1.3.1,2.5l-3.2,18.2c-.2,1-.1,1.7.1,2.2.3.5.7.7,1.3.7s1.3-.3,2-.8c.7-.5,1.2-1.2,1.6-2.1.2,0,.4,0,.5.2.1.1.2.3.1.6,0,.4-.3.9-.6,1.5-.3.5-.8,1.1-1.3,1.6-.5.5-1.2.9-1.9,1.3-.7.3-1.4.5-2.2.5-1.1,0-2-.4-2.8-1.1s-1.1-1.7-1.1-3,0-.8,0-1.3.1-1.1.2-1.8Z"/>
        <path class="cls-4" d="M399.8,315.1c1.9,0,3.4.6,4.4,1.7,1.1,1.1,1.6,2.6,1.6,4.5s0,.7,0,1c0,.3,0,.7-.1,1,.8-.1,1.5-.4,2.1-.8.6-.4,1.1-.8,1.4-1.2.3-.4.5-.6.5-.6.5,0,.7.3.6.8,0,.4-.3.8-.8,1.3-.4.5-1,.9-1.7,1.3-.7.4-1.5.6-2.4.7-.5,1.9-1.6,3.5-3,4.7-1.5,1.2-3.3,1.8-5.5,1.8s-3.2-.5-4.3-1.6c-1.1-1.1-1.7-2.6-1.7-4.6s.4-3.7,1.1-5.3c.7-1.5,1.8-2.7,3.1-3.6,1.4-.9,3-1.3,4.8-1.3ZM399.9,321.4c0-.6.1-1.1.4-1.5.3-.4.7-.7,1.3-.8-.2-1.7-.9-2.5-2.1-2.5s-1.6.5-2.4,1.4c-.8,1-1.4,2.7-1.9,5.1,0,.4-.2,1-.2,1.7,0,.7,0,1.3,0,1.7,0,1,.2,1.8.6,2.4.4.6.9.8,1.6.8s1.7-.5,2.4-1.4c.7-.9,1.3-2.4,1.7-4.4-.8-.6-1.3-1.5-1.3-2.6Z"/>
        <path class="cls-4" d="M418,327.3v-.5c0-.2,0-.4,0-.6-.5.9-1,1.8-1.5,2.4-.7.9-1.4,1.6-2.1,2.1s-1.6.7-2.5.7-2-.3-2.6-1c-.6-.7-1-1.6-1-2.8s0-1.2,0-1.8c0-.6.1-1.3.3-2.2l1-5.4c.2-1,.2-1.8.1-2.2,0-.4-.1-.6-.1-.6,0,0,.1,0,.4-.1.3,0,.7-.1,1.3-.1,1.3,0,2,.3,2.3.8.3.5.3,1.3.1,2.5l-1.3,7.6c-.2.9-.1,1.6,0,2.1.2.4.5.6,1,.6s.8-.2,1.2-.6c.4-.4.8-.9,1.3-1.6.5-.7.9-1.6,1.4-2.5.4-1,.8-2,1.2-3,.3-1,.6-2,.8-3,.2-.9.2-1.5.1-1.9,0-.4-.1-.6-.1-.6,0,0,.1,0,.4-.1.3,0,.7-.1,1.3-.1,1.3,0,2,.3,2.3.8.3.5.3,1.3.1,2.5l-1.3,7.4c-.2,1-.1,1.7.1,2.2.3.5.7.7,1.3.7s1.2-.3,1.8-.8c.7-.5,1.2-1.2,1.6-2.1.2,0,.4,0,.5.2.1.1.2.3.1.6,0,.4-.3.9-.6,1.5-.3.5-.7,1.1-1.3,1.6-.5.5-1.1.9-1.8,1.3-.7.3-1.4.5-2.2.5-1.1,0-2.1-.4-2.8-1.1s-1.1-1.7-1.1-3Z"/>
        <path class="cls-4" d="M440.1,331.4c-1.1,0-2-.3-2.7-1-.7-.7-1.1-1.6-1.2-2.8-1.4,2.5-3.1,3.7-5,3.7s-2.5-.5-3.4-1.4c-.9-.9-1.4-2.3-1.4-4.3s.2-3.4.7-4.8c.5-1.3,1.1-2.5,1.9-3.3.8-.9,1.7-1.5,2.6-2,1-.4,1.9-.7,2.9-.7s1.4.1,2,.4c.6.3,1,.6,1.4,1l1.6-9.1c.2-1,.2-1.8.1-2.2,0-.4-.1-.6-.1-.6,0,0,.1,0,.4-.1.3,0,.7-.1,1.3-.1,1.3,0,2,.3,2.3.8.3.5.3,1.3.1,2.5l-3.1,18.2c-.2,1-.1,1.7.1,2.2.3.5.7.7,1.3.7s1.2-.3,1.8-.8c.7-.5,1.2-1.2,1.6-2.1.2,0,.4,0,.5.2.1.1.2.3.1.6,0,.4-.3.9-.6,1.5-.3.5-.7,1.1-1.3,1.6-.5.5-1.1.9-1.8,1.3-.7.3-1.4.5-2.2.5ZM432.5,328.6c.6,0,1.1-.3,1.6-.8.5-.5.9-1.2,1.3-2.1.4-.8.8-1.7,1-2.7.3-1,.5-1.8.7-2.6l.3-1.5c-.2-.3-.4-.7-.7-1-.3-.4-.8-.5-1.4-.5s-1.5.3-2.2,1c-.7.7-1.3,1.7-1.8,3-.5,1.3-.7,2.8-.7,4.6s.2,1.6.5,2c.3.4.8.7,1.4.7Z"/>
      </g>
    </g>
  </g>
</svg>